<svg xmlns="http://www.w3.org/2000/svg"  viewBox="0 0 48 48" width="48px" height="48px"><path d="M 24 3 C 12.413593 3 3 12.413593 3 24 C 3 34.518693 10.751318 43.250215 20.859375 44.767578 A 1.0001 1.0001 0 0 0 22.007812 43.777344 L 21.998047 29.257812 A 1.0001 1.0001 0 0 0 20.998047 28.257812 L 17.050781 28.257812 L 17.050781 25 L 21 25 A 1.0001 1.0001 0 0 0 22 24.001953 L 22.009766 20.548828 A 1.0001 1.0001 0 0 0 22.009766 20.546875 C 22.009766 17.813283 22.664153 16.021513 23.742188 14.900391 C 24.820221 13.779268 26.413546 13.212891 28.644531 13.212891 C 30.407432 13.212891 31.082344 13.318081 31.746094 13.398438 L 31.746094 16.048828 L 29.464844 16.048828 C 28.127305 16.048828 27.020734 16.798902 26.451172 17.792969 C 25.88161 18.787035 25.707031 19.968948 25.707031 21.169922 L 25.697266 23.996094 A 1.0001 1.0001 0 0 0 26.697266 25 L 31.521484 25 L 31.017578 28.257812 L 26.697266 28.257812 A 1.0001 1.0001 0 0 0 25.697266 29.257812 L 25.705078 39.820312 A 1.0001 1.0001 0 1 0 27.705078 39.818359 L 27.697266 30.257812 L 31.873047 30.257812 A 1.0001 1.0001 0 0 0 32.861328 29.410156 L 33.675781 24.152344 A 1.0001 1.0001 0 0 0 32.6875 23 L 27.701172 23 L 27.707031 21.173828 A 1.0001 1.0001 0 0 0 27.707031 21.169922 C 27.707031 20.186896 27.889312 19.307543 28.1875 18.787109 C 28.485688 18.266676 28.759382 18.048828 29.464844 18.048828 L 32.746094 18.048828 A 1.0001 1.0001 0 0 0 33.746094 17.048828 L 33.746094 12.460938 A 1.0001 1.0001 0 0 0 32.880859 11.46875 C 32.309569 11.39152 30.9987 11.212891 28.644531 11.212891 C 26.061517 11.212891 23.837247 11.915795 22.300781 13.513672 C 20.764316 15.111549 20.009766 17.488467 20.009766 20.546875 L 20.001953 23 L 16.050781 23 A 1.0001 1.0001 0 0 0 15.050781 24 L 15.050781 29.257812 A 1.0001 1.0001 0 0 0 16.050781 30.257812 L 20 30.257812 L 20.007812 42.507812 C 11.444474 40.66482 5 33.124885 5 24 C 5 13.494407 13.494407 5 24 5 C 34.505593 5 43 13.494407 43 24 C 43 33.632476 35.849872 41.573188 26.572266 42.828125 A 1.0001994 1.0001994 0 1 0 26.839844 44.810547 C 37.094237 43.423484 45 34.623524 45 24 C 45 12.413593 35.586407 3 24 3 z"/></svg>